<svg id="Calque_1" data-name="Calque 1" xmlns="http://www.w3.org/2000/svg" viewBox="0 0 500 173.9"><defs><style>.cls-1{fill:#fafafa;}.cls-2{fill:#ffdc00;}</style></defs><path class="cls-1" d="M0,0H38.54A89.83,89.83,0,0,1,66.63,4.14,55.47,55.47,0,0,1,88.19,16.88,57.33,57.33,0,0,1,102,38.76q4.9,13.27,4.9,31.57T102,102.12a59.83,59.83,0,0,1-13.72,22.32,55.71,55.71,0,0,1-21,13.17,79.65,79.65,0,0,1-27,4.36H0ZM36.8,116.06a45.56,45.56,0,0,0,15.13-2.4,28.41,28.41,0,0,0,11.76-7.73,36.54,36.54,0,0,0,7.62-14Q74,83.18,74,70.33,74,57.7,71.31,49.1a34.68,34.68,0,0,0-7.62-13.72,27.59,27.59,0,0,0-11.76-7.29A49.87,49.87,0,0,0,36.8,25.91H32.23v90.15Z"/><path class="cls-1" d="M117.36,0H150l4.58,75.56q.21,9.14.43,18.07t.44,18.07h.65q1.74-9.15,3.81-18.07t3.81-18.07l9.8-39.41h19.38l9.36,39.41q1.74,8.7,3.7,17.85t3.7,18.29h.88q.42-9.15.54-18.18t.54-18L215.78,0h30.48L228.63,142H195.1l-8.93-44.64q-1.3-6.75-2.4-13.83t-1.52-13.39h-.65q-.66,6.33-1.64,13.39t-2.28,13.83L169.18,142H136.3Z"/><path class="cls-1" d="M296.34,27H253.88V0H371V27H328.57V142H296.34Z"/><rect class="cls-2" x="402.38" y="141.97" width="96.77" height="31.94"/></svg>